HIERARCHY
ROOT Hips
{
	OFFSET -3.958830 18.904000 13.208200
	CHANNELS 6 Xposition Yposition Zposition Zrotation Yrotation Xrotation 
	JOINT LHipJoint
	{
		OFFSET 0.000000 0.000000 0.000000
		CHANNELS 3 Zrotation Yrotation Xrotation
		JOINT LeftUpLeg
		{
			OFFSET 1.800000 -1.400000 0.085000
			CHANNELS 3 Zrotation Yrotation Xrotation
			JOINT LeftLeg
			{
				OFFSET 2.215000 -6.000000 0.000000
				CHANNELS 3 Zrotation Yrotation Xrotation
				JOINT LeftFoot
				{
					OFFSET 2.500000 -6.900000 0.000000
					CHANNELS 3 Zrotation Yrotation Xrotation
					JOINT LeftToeBase
					{
						OFFSET 0.200000 -0.500000 1.950000
						CHANNELS 3 Zrotation Yrotation Xrotation
						End Site
						{
							OFFSET 0.000000 0.000000 0.000000
						}
					}
				}
			}
		}
	}
	JOINT RHipJoint
	{
		OFFSET 0.000000 0.000000 0.000000
		CHANNELS 3 Zrotation Yrotation Xrotation
		JOINT RightUpLeg
		{
			OFFSET -1.800000 -1.400000 0.085000
			CHANNELS 3 Zrotation Yrotation Xrotation
			JOINT RightLeg
			{
				OFFSET -2.215000 -6.000000 0.000000
				CHANNELS 3 Zrotation Yrotation Xrotation
				JOINT RightFoot
				{
					OFFSET -2.500000 -6.900000 0.000000
					CHANNELS 3 Zrotation Yrotation Xrotation
					JOINT RightToeBase
					{
						OFFSET -0.200000 -0.500000 1.950000
						CHANNELS 3 Zrotation Yrotation Xrotation
						End Site
						{
							OFFSET 0.000000 0.000000 0.000000
						}
					}
				}
			}
		}
	}
	JOINT LowerBack
	{
		OFFSET 0.000000 0.000000 0.000000
		CHANNELS 3 Zrotation Yrotation Xrotation
		JOINT Spine
		{
			OFFSET -0.087000 1.940000 -0.288900
			CHANNELS 3 Zrotation Yrotation Xrotation
			JOINT Spine1
			{
				OFFSET 0.000000 1.950000 0.060000
				CHANNELS 3 Zrotation Yrotation Xrotation
				JOINT Neck
				{
					OFFSET 0.000000 0.000000 0.000000
					CHANNELS 3 Zrotation Yrotation Xrotation
					JOINT Neck1
					{
						OFFSET 0.000000 1.600000 0.340000
						CHANNELS 3 Zrotation Yrotation Xrotation
						JOINT Head
						{
							OFFSET 0.000000 1.667000 -0.240000
							CHANNELS 3 Zrotation Yrotation Xrotation
							End Site
							{
								OFFSET 0.000000 0.000000 0.000000
							}
						}
					}
				}
				JOINT LeftShoulder
				{
					OFFSET 0.000000 0.000000 0.000000
					CHANNELS 3 Zrotation Yrotation Xrotation
					JOINT LeftArm
					{
						OFFSET 2.700000 1.550000 -0.730000
						CHANNELS 3 Zrotation Yrotation Xrotation
						JOINT LeftForeArm
						{
							OFFSET 5.450000 0.000000 0.000000
							CHANNELS 3 Zrotation Yrotation Xrotation
							JOINT LeftHand
							{
								OFFSET 3.450000 0.000000 0.000000
								CHANNELS 3 Zrotation Yrotation Xrotation
								JOINT LeftHandIndex1
								{
									OFFSET 0.750000 0.000000 0.000000
									CHANNELS 3 Zrotation Yrotation Xrotation
									End Site
									{
										OFFSET 0.000000 0.000000 0.000000
									}
								}
							}
						}
					}
				}
				JOINT RightShoulder
				{
					OFFSET 0.000000 0.000000 0.000000
					CHANNELS 3 Zrotation Yrotation Xrotation
					JOINT RightArm
					{
						OFFSET -2.700000 1.550000 -0.730000
						CHANNELS 3 Zrotation Yrotation Xrotation
						JOINT RightForeArm
						{
							OFFSET -5.450000 0.000000 0.000000
							CHANNELS 3 Zrotation Yrotation Xrotation
							JOINT RightHand
							{
								OFFSET -3.450000 0.000000 0.000000
								CHANNELS 3 Zrotation Yrotation Xrotation
								JOINT RightHandIndex1
								{
									OFFSET -0.750000 0.000000 0.000000
									CHANNELS 3 Zrotation Yrotation Xrotation
									End Site
									{
										OFFSET 0.000000 0.000000 0.000000
									}
								}
							}
						}
					}
				}
			}
		}
	}
}
MOTION
Frames: 10
Frame Time: 0.016667
-0.200920 17.009380 -3.547810 2.075463 -3.033843 5.291132 -15.317569 12.152165 4.436567 1.482904 -5.990875 -31.561422 -9.099172 1.809642 -5.017571 -0.597828 2.529456 3.712982 0.462210 0.472840 0.218370 18.258335 -10.481126 2.145551 -2.259504 0.748969 -12.733374 4.939012 -5.155097 19.870399 -0.116828 -3.766795 3.034400 0.491360 0.248290 0.136610 -3.295611 -1.857847 -7.609939 2.535946 1.753102 13.661966 0.447322 2.566712 10.353656 -2.037040 -5.530012 -6.453909 -10.581725 -0.726099 25.754514 -3.859640 -2.167850 -9.628770 -8.334155 -4.234881 -0.479659 -8.729501 -18.468498 4.705184 -164.789747 -77.590418 161.796174 -3.802123 3.523433 -0.051360 0.259420 -0.128320 0.200340 11.941819 10.000376 4.660187 15.910447 12.502322 0.055418 -157.475524 77.001473 -157.543318 1.957790 -2.222885 -0.089030 0.232870 -0.097500 -0.022350 
-0.206410 16.984590 -3.549410 1.976769 -3.292984 5.338979 -15.331924 12.133397 4.479542 1.815317 -5.969838 -31.492822 -9.482106 1.693589 -5.888349 -0.580122 2.597419 3.685117 0.458860 0.465200 0.224820 18.249631 -10.441466 2.133177 -1.958306 0.774059 -12.734877 4.638073 -5.086351 20.077832 -0.119064 -3.753459 3.037834 0.482700 0.236240 0.142140 -3.258537 -1.916628 -7.636287 2.427349 1.689108 13.720404 0.427224 2.584617 10.434847 -1.905496 -5.799697 -6.592018 -11.057899 -0.776799 25.682060 -4.474360 -2.092850 -9.744600 -9.083406 -4.853154 -0.228916 -10.115851 -18.834618 4.711709 -166.352623 -77.736127 163.470117 -3.801023 3.511582 -0.046030 0.256750 -0.122110 0.192120 12.442391 10.824849 4.742759 15.862883 13.336685 0.056661 -153.857213 78.403929 -153.988053 1.981162 -2.199837 -0.084580 0.224230 -0.094230 -0.028700 
-0.202060 16.936120 -3.557600 1.559665 -2.914995 5.318943 -15.386459 12.199727 4.542561 1.949104 -5.988558 -32.023486 -9.533618 1.632080 -6.413458 -0.552652 2.607885 3.678191 0.435020 0.429490 0.225440 18.204500 -10.311713 2.126718 -1.401633 0.890617 -12.955769 4.692970 -5.206443 20.998328 -0.130573 -3.771969 3.032372 0.445600 0.218240 0.139800 -3.115259 -2.268230 -7.671777 2.221768 1.096634 14.102939 0.396773 2.101751 10.122025 -1.377533 -5.888698 -6.583959 -11.463770 -0.974505 25.931709 -4.796530 -2.069740 -9.749820 -9.983465 -5.593682 0.879563 -14.986698 -19.017803 4.937685 -165.608791 -76.949457 161.259007 -3.782291 3.468425 -0.026440 0.238250 -0.108120 0.179440 12.333991 11.648065 3.416680 18.801545 17.439281 0.127883 -90.055379 87.265922 -85.925129 1.958275 5.597315 -0.081950 0.214480 -0.089100 -0.034710 
-0.207930 16.915670 -3.564910 1.295632 -2.486998 5.044289 -15.368060 12.228698 4.502778 1.811532 -5.834082 -32.629294 -9.321888 1.955161 -4.610576 -0.562105 2.503840 3.703007 0.423280 0.412300 0.216850 18.202303 -10.394199 2.196904 -0.866797 1.070486 -13.308987 4.546098 -5.296100 22.269148 -0.148209 -3.832466 3.014199 0.421570 0.201390 0.125270 -3.139919 -2.121561 -7.739123 2.341481 1.275635 14.903641 1.501047 2.509482 10.666368 -1.501932 -6.373504 -7.188343 -12.354145 -1.427786 26.822075 -4.546480 -2.937550 -10.004640 -11.257133 -8.406832 2.235327 -21.785850 -19.969298 4.801441 -155.771070 -76.398585 147.311317 -3.693300 3.292890 -0.006190 0.206900 -0.095560 0.175090 14.006508 15.271316 3.837488 20.329973 15.891018 -5.432462 -12.224499 86.355971 -11.953037 1.758448 -1.695538 -0.077810 0.219890 -0.085840 -0.030510 
-0.206780 16.914000 -3.549250 1.384319 -2.797900 4.674710 -15.352770 12.414257 4.403567 1.377516 -5.545295 -32.909838 -8.970102 2.557928 -1.167663 -0.569460 2.391039 3.720358 0.428420 0.409440 0.223560 18.183231 -10.477991 2.251916 -0.630985 1.303191 -13.634635 3.754208 -5.200941 23.865589 -0.173486 -3.873048 2.995807 0.397260 0.160630 0.114020 -3.129517 -2.193292 -7.713716 2.287415 1.152306 15.372521 1.582397 2.525350 11.060278 -1.387236 -7.583954 -7.937303 -14.822447 -1.075817 27.608199 -4.500340 -3.443120 -10.617720 -12.762934 -9.704389 3.642693 -30.349948 -19.443991 4.340702 -140.469897 -75.581193 125.733084 -3.652307 3.005670 0.030490 0.156540 -0.064390 0.172020 15.393526 17.648612 3.972524 24.120515 19.049080 -5.824538 -5.640492 75.950992 -4.594810 1.817806 -1.677576 -0.063370 0.213750 -0.094440 -0.030380 
-0.204040 16.940890 -3.533490 1.346302 -3.266108 4.308599 -15.329226 12.633134 4.301971 1.084200 -5.240878 -33.318115 -8.406630 3.327805 3.431676 -0.551976 2.355417 3.708702 0.414030 0.383230 0.202810 18.164076 -10.551151 2.344909 -0.206248 1.656019 -14.191864 2.914072 -5.013418 25.448079 -0.191711 -3.880717 2.996513 0.354160 0.127490 0.088890 -3.128995 -2.302593 -7.722151 2.574459 1.226634 16.339895 1.669639 2.771205 10.669054 -1.234591 -9.368750 -8.845178 -18.752339 -0.277931 28.749079 -3.718750 -4.388930 -10.970360 -15.517953 -10.902507 4.709925 -39.300063 -19.586035 4.603723 -112.481024 -75.270388 89.007148 -3.957466 2.378395 0.075980 0.091160 -0.038410 0.171500 18.034147 20.392107 4.575447 27.184262 20.699907 -6.318567 -3.434639 65.309985 -2.124537 1.911703 -1.579549 -0.054270 0.215900 -0.092610 -0.020740 
-0.187910 16.970870 -3.500430 1.662963 -2.736103 4.233310 -15.307903 12.785475 4.286642 0.225124 -5.412580 -33.852243 -8.022996 4.163866 8.700087 -0.503519 2.479223 3.642687 0.390230 0.339170 0.189970 18.149559 -10.624593 2.411109 0.040385 2.029832 -15.142121 1.587212 -4.739366 27.537427 -0.205744 -3.932535 2.973974 0.302100 0.094870 0.075510 -3.147894 -2.345278 -7.772628 2.990704 0.935132 17.020414 0.878460 2.599241 9.508215 -0.760524 -10.487982 -9.448983 -21.678657 0.319819 30.130861 -3.628860 -5.186680 -10.451070 -19.401385 -11.464571 5.194471 -46.702027 -18.572659 4.764672 -79.921031 -71.966990 52.898129 -3.893134 3.286601 0.107590 0.041090 -0.019090 0.162990 21.088924 21.895291 5.253944 31.042699 21.109674 -6.066715 -0.413914 54.474781 -0.429908 2.039215 -1.511550 -0.042370 0.200290 -0.089030 -0.016010 
-0.180440 17.007200 -3.459960 2.012471 -1.565416 4.135231 -15.285789 12.882338 4.287290 -0.607704 -5.676415 -33.785612 -7.528207 4.888361 13.480660 -0.413030 2.731939 3.536534 0.358050 0.289880 0.166070 18.138065 -10.638256 2.544843 0.145717 2.912977 -17.106909 1.229824 -4.958575 31.498232 -0.268163 -4.255702 2.855914 0.240100 0.066640 0.057070 -3.187186 -2.354407 -7.920063 3.314439 0.423127 18.185110 -0.398139 2.214044 6.671562 -0.229267 -11.115826 -9.685450 -24.025143 1.492872 32.628216 -3.017230 -5.709460 -9.455330 -23.969923 -11.969984 4.313959 -51.017223 -15.803067 0.118133 -57.548633 -55.833703 26.267809 -3.620055 3.460579 0.140750 -0.011420 0.001760 0.158020 24.656502 22.735600 6.148808 35.036221 20.196309 -5.577307 2.995558 44.517142 0.392580 2.194941 -1.453135 -0.029610 0.185250 -0.085690 -0.005960 
-0.178110 17.024870 -3.407330 1.997347 0.455906 3.787914 -15.231438 12.889860 4.243622 -1.080315 -5.861456 -33.297046 -6.685620 5.485431 18.071264 -0.299237 3.081970 3.395383 0.339330 0.264120 0.151460 18.170507 -10.636054 2.758724 0.591013 4.035454 -19.146507 1.258336 -5.490378 36.328633 -0.392762 -4.831106 2.648971 0.191080 0.031250 0.050190 -3.354050 -2.179779 -8.103176 4.557576 -0.151046 19.547786 -2.444699 1.950047 3.546920 0.520350 -10.968680 -9.532285 -24.436934 2.124834 35.169360 -2.549500 -5.906170 -8.385750 -29.449136 -11.966922 3.291256 -52.829532 -12.683342 -3.058609 -44.956496 -42.907006 13.673730 -3.528693 3.386236 0.160030 -0.053320 0.028240 0.157560 28.507290 22.445042 6.641434 38.518473 17.875215 -5.510123 6.248548 37.410973 0.786067 2.314299 -1.442633 -0.005540 0.153430 -0.095640 0.004020 
-0.183210 17.025090 -3.360270 1.776725 2.486276 3.011403 -15.170564 12.892925 4.136696 -1.328881 -5.982690 -32.347204 -4.751342 5.798203 22.963729 -0.206689 3.519733 3.226304 0.340400 0.254830 0.179440 18.217351 -10.595538 3.029574 0.934465 5.302762 -21.263530 1.826907 -6.469400 41.576034 -0.576751 -5.602069 2.372799 0.161980 -0.018050 0.045260 -3.553851 -1.998634 -8.293043 5.871365 -0.868677 21.564563 -4.834444 1.606282 0.411282 1.214287 -10.155493 -8.914318 -23.153794 2.032751 37.608958 -2.607690 -5.811520 -8.320210 -35.549620 -11.636967 2.247643 -51.324886 -9.789590 -5.070301 -34.709483 -34.551562 7.365825 -3.425415 3.317221 0.195170 -0.092870 0.066220 0.145930 32.879470 21.201497 6.719554 41.544603 14.731358 -6.227667 9.312632 33.818053 1.093885 2.370797 -1.447729 0.007450 0.133420 -0.112350 -0.008230 
